<svg height="504pt" viewBox="0 -17 504 504" width="504pt" xmlns="http://www.w3.org/2000/svg"><path d="m66.566406 285.6875h370.867188l50.566406 101.144531h-472zm0 0" fill="#4370ff"/><path d="m502.320312 379.679688-4.398437-8.878907h-456l34.558594-69.121093h351.039062l18.558594 37.121093h35.84375l-28.480469-56.878906v-265.921875c0-8.835938-7.164062-16.00390625-16-16h-370.882812c-8.835938-.00390625-16 7.164062-16 16v221.679688h32v-205.679688h338.882812v237.679688h-364.761718l-55 110c-1.074219 2.222656-1.648438 4.652343-1.679688 7.121093v67.4375c-.00390625 8.839844 7.164062 16.003907 16 16h472c8.835938.003907 16.003906-7.160156 16-16v-67.4375c-.027344-2.46875-.601562-4.902343-1.679688-7.121093zm-30.320312 58.558593h-440v-35.4375h440zm0 0"/><path d="m101.144531 320.261719h183.714844v32h-183.714844zm0 0"/><path d="m320.289062 320.261719h82.570313v32h-82.570313zm0 0"/><path d="m235.144531 84.261719c-6.886719 0-13 4.40625-15.179687 10.9375l-21.5 64.507812-33.296875-66.601562c-2.710938-5.421875-8.253907-8.84375-14.3125-8.84375h-32.855469v32h22.96875l46.152344 92.304687c2.898437 5.78125 8.992187 9.253906 15.445312 8.792969 6.453125-.457031 11.996094-4.753906 14.046875-10.886719l30.066407-90.210937h139.320312v-32zm0 0"/><path d="m336.289062 128.207031-25.289062 25.289063-25.289062-25.289063-22.621094 22.625 25.285156 25.289063-25.285156 25.285156 22.621094 22.625 25.289062-25.289062 25.289062 25.289062 22.621094-22.625-25.285156-25.285156 25.285156-25.289063zm0 0"/></svg>